<?xml version="1.0" standalone="no"?>
<!DOCTYPE svg PUBLIC "-//W3C//DTD SVG 1.1//EN" "http://www.w3.org/Graphics/SVG/1.1/DTD/svg11.dtd" >
<svg xmlns="http://www.w3.org/2000/svg" xmlns:xlink="http://www.w3.org/1999/xlink" version="1.1">
<metadata>
Created by FontForge 20170731 at Wed Sep 20 11:51:18 2017
 By Aleksey,,,
1871 Project
</metadata>
<defs>
<font id="Crafter-Regular" horiz-adv-x="264" >
  <font-face 
    font-family="Crafter"
    font-weight="400"
    font-stretch="normal"
    units-per-em="1000"
    panose-1="0 0 0 0 0 0 0 0 0 0"
    ascent="800"
    descent="-200"
    x-height="698"
    cap-height="700"
    bbox="30 -230 1634 915"
    underline-thickness="50"
    underline-position="-200"
    unicode-range="U+000A-25CA"
  />
<missing-glyph horiz-adv-x="530" 
 />
    <glyph glyph-name=".notdef" horiz-adv-x="530" 
 />
    <glyph glyph-name=".null" horiz-adv-x="0" 
 />
    <glyph glyph-name="nonmarkingreturn" horiz-adv-x="333" 
 />
    <glyph glyph-name="LF" unicode="&#xa;" horiz-adv-x="0" 
 />
    <glyph glyph-name="controlCR" unicode="&#xd;" horiz-adv-x="0" 
 />
    <glyph glyph-name="space" unicode=" " horiz-adv-x="260" 
 />
    <glyph glyph-name="exclam" unicode="!" 
d="M51 243v456h162v-456h-162zM132 -5q-33 0 -57.5 26t-24.5 61q0 37 21.5 62t60.5 25t60.5 -25t21.5 -62q0 -35 -24.5 -61t-57.5 -26z" />
    <glyph glyph-name="quotedbl" unicode="&#x22;" horiz-adv-x="504" 
d="M50 617q0 37 21.5 62t60.5 25t60.5 -25t21.5 -62v-2q0 -36 -6.5 -73t-21 -74.5t-43 -61.5t-66.5 -24l-18 32q35 0 49.5 14.5t8.5 39t-15.5 44t-24.5 41.5l-2 3q-13 13 -19 29l-3 8q-3 12 -3 24zM290 617q0 37 21.5 62t60.5 25t60.5 -25t21.5 -62v-2q0 -36 -6.5 -73
t-21 -74.5t-43 -61.5t-66.5 -24l-18 32q35 0 49.5 14.5t8.5 39t-15.5 44t-24.5 41.5l-2 3q-13 13 -19 29l-3 8q-3 12 -3 24z" />
    <glyph glyph-name="numbersign" unicode="#" horiz-adv-x="887" 
d="M809 418h-99l-27 -151h99l-28 -162h-100l-19 -110h-162l19 110h-163l-19 -110h-162l19 110h-117l28 162h118l27 151h-118l28 162h118l21 119h162l-21 -119h163l21 119h162l-21 -119h99zM521 267l27 151h-163l-27 -151h163z" />
    <glyph glyph-name="dollar" unicode="$" horiz-adv-x="842" 
d="M538 419q54 -11 94 -24.5t79 -37t60 -61t21 -86.5q0 -78 -70.5 -136t-183.5 -75v-100h-162v97q-191 14 -326 95l92 134q9 -6 27 -15t78.5 -27t128.5 -24v123q-45 8 -78 16.5t-70 24t-61 36t-39.5 52t-15.5 71.5q0 80 73.5 138t190.5 74v128h162v-127q136 -13 215 -57
l-84 -139l1 -1l-3 2q-3 1 -8.5 3t-13 5t-18.5 6t-24 6t-30 6t-35 5v-112zM376 529q-101 -21 -101 -48q0 -4 3 -7t9.5 -5.5l13 -5t17.5 -5t18 -4t20.5 -4t19.5 -3.5v82zM538 165q91 22 91 46q0 20 -91 41v-87z" />
    <glyph glyph-name="percent" unicode="%" horiz-adv-x="1077" 
d="M380 -208l-146 69l491 1054l147 -69zM264 903q89 0 151.5 -59.5t62.5 -144.5t-62.5 -144.5t-151.5 -59.5t-151.5 59.5t-62.5 144.5t62.5 144.5t151.5 59.5zM261 626q37 0 64 23t27 51q0 29 -27 51.5t-64 22.5q-36 0 -62 -22.5t-26 -51.5q0 -28 26.5 -51t61.5 -23z
M813 178q89 0 151.5 -59.5t62.5 -144.5t-62.5 -144.5t-151.5 -59.5t-151.5 59.5t-62.5 144.5t62.5 144.5t151.5 59.5zM810 -99q37 0 64 23t27 51q0 29 -27 51.5t-64 22.5q-36 0 -62 -22.5t-26 -51.5q0 -28 26.5 -51t61.5 -23z" />
    <glyph glyph-name="ampersand" unicode="&#x26;" horiz-adv-x="1006" 
d="M956 24h-162v-8q-4 18 -34 56q-45 -30 -102 -44q-81 -21 -165 -21q-124 0 -231.5 41t-162.5 113q-76 99 -37 207q22 60 75.5 106t131.5 73l-12 10l-170 144h667v-163h-228q102 -94 122 -113q33 -31 87 -85q-7 28 -31 49l109 121q56 -50 77 -118.5t3 -140.5
q-8 -33 -22 -59q85 -104 85 -168zM618 185q11 3 31 11q-100 101 -234 223l-52 -14q-63 -14 -100.5 -40.5t-47.5 -51.5q-7 -26 12 -52q43 -55 154.5 -80t236.5 4z" />
    <glyph glyph-name="quotesingle" unicode="'" 
d="M50 602q0 37 21.5 62t60.5 25t60.5 -25t21.5 -62v-3q0 -36 -6.5 -72.5t-21 -74t-42.5 -61.5t-67 -24l-18 32q21 0 34.5 4.5t17.5 15t5.5 19t-5 25.5t-10 25.5t-13 27t-11.5 22.5l-1 2q-13 13 -19 29l-3 8q-4 16 -4 25z" />
    <glyph glyph-name="parenleft" unicode="(" horiz-adv-x="511" 
d="M461 603q-103 0 -175.5 -73t-72.5 -176t72.5 -176t175.5 -73v-163q-170 0 -290.5 121t-120.5 291t120.5 291t290.5 121v-163z" />
    <glyph glyph-name="parenright" unicode=")" horiz-adv-x="511" 
d="M50 766q170 0 290.5 -121t120.5 -291t-120.5 -291t-290.5 -121v163q103 0 176 73t73 176t-73 176t-176 73v163z" />
    <glyph glyph-name="asterisk" unicode="*" horiz-adv-x="602" 
d="M50 699l81 140l89 -52v85h162v-85l89 52l81 -140l-90 -52l84 -49l-81 -140l-83 48v-113h-162v113l-83 -48l-81 140l84 49z" />
    <glyph glyph-name="comma" unicode="," 
d="M50 87q0 37 21.5 62t60.5 25t60.5 -25t21.5 -62v-3q-1 -37 -7.5 -73t-20.5 -74t-42.5 -61.5t-66.5 -23.5l-18 32q35 0 50 15.5t10.5 38.5t-16 45.5t-26.5 39.5l-2 2q-11 11 -19 29l-2 8q-4 11 -4 25z" />
    <glyph glyph-name="hyphen" unicode="-" horiz-adv-x="457" 
d="M407 291h-357v162h357v-162z" />
    <glyph glyph-name="period" unicode="." 
d="M132 0q-33 0 -57.5 26t-24.5 61q0 37 21.5 62t60.5 25t60.5 -25t21.5 -62q0 -35 -24.5 -61t-57.5 -26z" />
    <glyph glyph-name="slash" unicode="/" horiz-adv-x="738" 
d="M196 -208l-146 69l491 1054l147 -69z" />
    <glyph glyph-name="zero" unicode="0" horiz-adv-x="883" 
d="M441 700q170 0 291 -102.5t121 -247.5t-121 -247.5t-291 -102.5t-290.5 102.5t-120.5 247.5t120.5 247.5t290.5 102.5zM441 163q103 0 176 55t73 132q0 78 -73 133t-176 55t-175.5 -55t-72.5 -133q0 -77 72.5 -132t175.5 -55z" />
    <glyph glyph-name="one" unicode="1" horiz-adv-x="666" 
d="M636 163v-163h-606v163h209v314l-87 -50l-82 141l227 132h104v-537h235z" />
    <glyph glyph-name="two" unicode="2" horiz-adv-x="747" 
d="M717 171v-162h-687v81q0 32 11.5 61.5t26.5 51.5t45 45t52 37t64.5 33.5t64.5 29t69 27.5q172 70 189 95q-5 24 -58 44.5t-123 20.5q-80 0 -128 -25q-30 -15 -30 -32h-162q0 115 117 177q84 43 203 43q152 0 248 -64.5t96 -166.5q0 -37 -17.5 -69.5t-40.5 -54t-68.5 -46
t-76.5 -37.5t-90 -36q-99 -41 -124 -53h419z" />
    <glyph glyph-name="three" unicode="3" horiz-adv-x="811" 
d="M661 415q56 -34 88 -82t32 -103q0 -106 -107.5 -176.5t-268.5 -70.5t-268 70.5t-107 176.5h163q0 -26 62 -55.5t150 -29.5q89 0 151 29.5t62 55.5t-60.5 55t-148.5 30q-16 -4 -32.5 -6.5t-28.5 -4t-15 -2.5l-20 162q54 7 120.5 26t113.5 45h-371v163h603v-81
q0 -119 -118 -202z" />
    <glyph glyph-name="four" unicode="4" horiz-adv-x="925" 
d="M895 697v-698h-163v150h-702l412 551h203l-290 -388h377v385h163z" />
    <glyph glyph-name="five" unicode="5" horiz-adv-x="813" 
d="M425 506q172 0 265 -72.5t93 -169.5q0 -56 -31.5 -105.5t-89.5 -83.5q-111 -66 -289 -66q-84 0 -151 11.5t-105.5 29t-57.5 31t-29 25.5l127 108l13 -10q71 -33 203 -33t205 43q42 26 42 50q0 16 -18.5 33t-65.5 31.5t-111 14.5q-67 0 -119 -21l-180 63v315h520v-162
h-357v-50q67 18 136 18z" />
    <glyph glyph-name="six" unicode="6" horiz-adv-x="781" 
d="M390 492q154 0 257.5 -69t103.5 -173q0 -103 -103.5 -172t-257.5 -69t-257 69t-103 172q0 4 0.5 11.5t0.5 10.5q3 192 141.5 310t361.5 118v-162q-124 0 -213 -50q29 4 69 4zM390 171q59 0 107 15.5t69.5 33t21.5 30.5t-21.5 31t-69.5 33.5t-107 15.5t-106.5 -15.5
t-69 -33.5t-21.5 -31t21.5 -30.5t69 -33t106.5 -15.5z" />
    <glyph glyph-name="seven" unicode="7" horiz-adv-x="751" 
d="M721 700v-81q0 -32 -15.5 -67t-35 -62t-62.5 -69t-71.5 -67t-88.5 -76q-56 -49 -83 -73t-76.5 -71t-72.5 -80.5t-23 -54.5h-163q0 33 11 66.5t35.5 69t48.5 64.5t66.5 68.5t71 64.5t80.5 69q110 95 152 137h-357v162h583z" />
    <glyph glyph-name="eight" unicode="8" horiz-adv-x="781" 
d="M627 433q58 -35 91 -83t33 -104q0 -104 -104.5 -175t-256.5 -71q-151 0 -255.5 71t-104.5 175q0 114 123 187q-25 39 -25 82q0 79 75 132t187 53q113 0 188 -53t75 -132q0 -44 -26 -82zM390 538q-58 0 -92 -23q34 -23 92 -23t93 23q-35 23 -93 23zM390 163q84 0 141 28.5
t57 54.5q0 27 -57 55.5t-141 28.5t-140.5 -29t-56.5 -55t57 -54.5t140 -28.5z" />
    <glyph glyph-name="nine" unicode="9" horiz-adv-x="781" 
d="M390 700q154 0 257.5 -69t103.5 -172q0 -9 -2 -25q-5 -92 -90 -194.5t-209 -171t-233 -68.5v163q72 0 166 54q-152 2 -252.5 70.5t-100.5 171.5t103 172t257 69zM390 379q59 0 107 15.5t69.5 33t21.5 30.5t-21.5 31t-69.5 33.5t-107 15.5t-106.5 -15.5t-69 -33.5
t-21.5 -31t21.5 -30.5t69 -33t106.5 -15.5z" />
    <glyph glyph-name="colon" unicode=":" 
d="M132 415q-33 0 -57.5 26t-24.5 61q0 37 21.5 62t60.5 25t60.5 -25t21.5 -62q0 -35 -24.5 -61t-57.5 -26zM132 115q-33 0 -57.5 26t-24.5 61q0 37 21.5 62t60.5 25t60.5 -25t21.5 -62q0 -35 -24.5 -61t-57.5 -26z" />
    <glyph glyph-name="semicolon" unicode=";" 
d="M132 390q-33 0 -57.5 26t-24.5 61q0 37 21.5 62t60.5 25t60.5 -25t21.5 -62q0 -35 -24.5 -61t-57.5 -26zM50 87q0 37 21.5 62t60.5 25t60.5 -25t21.5 -62v-3q-1 -37 -7.5 -73t-20.5 -74t-42.5 -61.5t-66.5 -23.5l-18 32q35 0 50 15.5t10.5 38.5t-16 45.5t-26.5 39.5l-2 2
q-11 11 -19 29l-2 8q-4 11 -4 25z" />
    <glyph glyph-name="question" unicode="?" horiz-adv-x="764" 
d="M370 697q152 0 248 -64t96 -166q0 -38 -13.5 -69t-30.5 -48.5t-46.5 -33t-45.5 -21t-44 -13.5q-57 -16 -69 -25.5t-12 -33.5h-163q0 46 15 82.5t34.5 57.5t51.5 38t51 23.5t49 14.5q55 17 60 22l1 2v4q0 24 -54.5 46t-127.5 22q-79 0 -127 -25q-30 -16 -30 -33h-163
q0 116 118 177q83 43 202 43zM371 0q-33 0 -57.5 26t-24.5 61q0 37 21.5 62t60.5 25t60.5 -25t21.5 -62q0 -35 -24.5 -61t-57.5 -26z" />
    <glyph glyph-name="at" unicode="@" horiz-adv-x="1006" 
d="M838 574q55 -52 86.5 -120t31.5 -136q0 -89 -50.5 -146t-129.5 -57q-90 0 -144 72q-62 -27 -139 -27q-110 0 -183 51t-73 127t73.5 127t182.5 51t182 -51t73 -127q0 -3 1 -10.5t3.5 -19.5t8.5 -21t15 -9q17 0 17 40q0 76 -67 138q-86 81 -242 81q-112 0 -191.5 -59
t-79.5 -142t79.5 -142t191.5 -59v-162q-180 0 -307 106.5t-127 256.5q0 151 127 257.5t307 106.5q221 0 354 -126zM493 322q46 0 78 16q-34 15 -78 15q-45 0 -79 -15q32 -16 79 -16z" />
    <glyph glyph-name="A" unicode="A" horiz-adv-x="947" 
d="M907 0h-180l-64 134h-378l-64 -134h-181l339 698v1h195v-1zM586 296l-110 231l-112 -231h222z" />
    <glyph glyph-name="B" unicode="B" horiz-adv-x="867" 
d="M710 372q117 -58 117 -158q0 -98 -76 -155.5t-245 -57.5h-466v699h360q167 0 256.5 -67t89.5 -156q0 -56 -36 -105zM203 427h197q184 0 184 50q0 30 -40 45t-144 15h-197v-110zM422 163q237 0 237 51q0 29 -59 39.5t-179 10.5h-218v-101h219z" />
    <glyph glyph-name="C" unicode="C" horiz-adv-x="856" 
d="M532 163q118 0 212 47l72 -146q-128 -63 -284 -63q-207 0 -349.5 101t-142.5 248t142.5 248.5t349.5 101.5q156 0 284 -63l-72 -146q-92 46 -212 46q-79 0 -154 -23t-125 -67t-50 -97t50 -96.5t125 -67t154 -23.5z" />
    <glyph glyph-name="D" unicode="D" horiz-adv-x="901" 
d="M401 700q109 0 198.5 -31t145.5 -82t86 -114.5t30 -131.5q0 -145 -119 -242q-121 -98 -320 -98h-382v699h361zM639 225q59 48 59 116q0 79 -79.5 137.5t-217.5 58.5h-198v-374h219q141 0 217 62z" />
    <glyph glyph-name="E" unicode="E" horiz-adv-x="673" 
d="M203 537v-106h291v-162h-291v-106h428v-162h-591v699h593v-163h-430z" />
    <glyph glyph-name="F" unicode="F" horiz-adv-x="673" 
d="M203 537v-106h291v-162h-291v-270h-163v701h593v-163h-430z" />
    <glyph glyph-name="G" unicode="G" horiz-adv-x="913" 
d="M873 432v-346l-46 -22q-126 -63 -288 -63q-210 0 -354.5 101t-144.5 248q0 67 30.5 128.5t89 111.5t156.5 80t223 30q159 0 288 -63l-71 -146q-95 46 -217 46q-148 0 -242 -52t-94 -135q0 -74 101 -130.5t235 -56.5q90 0 171 28v78h-218v163h381z" />
    <glyph glyph-name="H" unicode="H" horiz-adv-x="786" 
d="M746 700v-701h-163v270h-380v-270h-163v701h163v-269h380v269h163z" />
    <glyph glyph-name="I" unicode="I" horiz-adv-x="243" 
d="M40 -1v701h163v-701h-163z" />
    <glyph glyph-name="J" unicode="J" horiz-adv-x="619" 
d="M579 700v-345q0 -139 -96 -227q-98 -90 -284 -113q-49 -6 -106 -6q-14 0 -26.5 0.5t-19.5 0.5l-7 1l13 162q71 -6 168.5 9.5t151.5 65.5q43 39 43 107v345h163z" />
    <glyph glyph-name="K" unicode="K" horiz-adv-x="824" 
d="M784 1h-224l-269 282l-88 -80v-204h-163v701h163v-277l303 277h241l-336 -307z" />
    <glyph glyph-name="L" unicode="L" horiz-adv-x="590" 
d="M550 163v-162h-510v699h163v-537h347z" />
    <glyph glyph-name="M" unicode="M" horiz-adv-x="907" 
d="M867 700v-699h-163v393l-255 -306l-246 302v-389h-163v699h120l291 -356l297 356h119z" />
    <glyph glyph-name="N" unicode="N" horiz-adv-x="791" 
d="M751 700v-699h-104l-444 427v-427l-163 -2v701h114l435 -418v418h162z" />
    <glyph glyph-name="O" unicode="O" horiz-adv-x="929" 
d="M465 700q175 0 299.5 -102.5t124.5 -247.5q0 -95 -57 -175.5t-154.5 -127t-212.5 -46.5q-176 0 -300.5 102t-124.5 247t124.5 247.5t300.5 102.5zM465 163q106 0 184 55.5t78 131.5t-77.5 131.5t-184.5 55.5t-184.5 -55.5t-77.5 -131.5t78 -131.5t184 -55.5z" />
    <glyph glyph-name="P" unicode="P" horiz-adv-x="726" 
d="M334 699q175 0 273.5 -79t98.5 -191t-95.5 -191.5t-256.5 -79.5h-161v-159h-163v700h304zM354 321q87 0 138.5 29.5t51.5 78.5q0 50 -55 78.5t-155 28.5h-141v-215h161z" />
    <glyph glyph-name="Q" unicode="Q" horiz-adv-x="929" 
d="M889 350q0 -87 -48.5 -162t-131.5 -124q45 -2 87 -18l-60 -152q-20 8 -47.5 9t-65.5 -6.5t-63.5 -14.5t-72.5 -20q-163 -44 -230 -44q-51 0 -92 15l54 153q46 -15 175 19q-152 21 -253 118.5t-101 226.5q0 145 124.5 247.5t300.5 102.5q175 0 299.5 -102.5t124.5 -247.5z
M465 163q106 0 184 55.5t78 131.5t-77.5 131.5t-184.5 55.5t-184.5 -55.5t-77.5 -131.5t78 -131.5t184 -55.5z" />
    <glyph glyph-name="R" unicode="R" horiz-adv-x="821" 
d="M729 176q27 -10 41 -32t10.5 -46t-17 -46.5t-43 -37.5t-66.5 -15q-44 0 -97.5 25t-94.5 54.5t-84.5 54.5t-69.5 25h-105v-159h-163v700h304q174 0 273 -79.5t99 -190.5q0 -49 -16.5 -91.5t-42 -70t-48 -44t-41.5 -23.5q16 -28 74.5 -38.5t86.5 14.5zM344 321
q210 0 210 108q0 107 -210 107h-141v-215h141z" />
    <glyph glyph-name="S" unicode="S" horiz-adv-x="822" 
d="M447 434q41 -7 64 -11t63.5 -14t64.5 -20t54.5 -27t47.5 -37.5t29 -50t12 -64.5q0 -92 -97.5 -154.5t-242.5 -62.5q-72 0 -139.5 10.5t-110 23t-82 29.5t-51 24t-19.5 12l92 134q4 -3 13 -7.5t38.5 -16.5t62.5 -21.5t86.5 -17t109.5 -7.5q78 0 127.5 16.5t49.5 39.5
q0 30 -198 61q-41 7 -63 11t-61 13t-62 18.5t-51.5 25.5t-44 35t-26.5 46t-11 60q0 93 97 155t243 62q87 0 161.5 -15t100 -26t39.5 -20l-84 -139l1 -1q-3 3 -23 11t-75 18t-120 10q-75 0 -126 -17t-51 -38q0 -8 12.5 -14.5t36.5 -11.5t43 -8.5t50 -8t40 -5.5z" />
    <glyph glyph-name="T" unicode="T" horiz-adv-x="767" 
d="M727 700v-163h-260v-538h-163v538h-264v163h687z" />
    <glyph glyph-name="U" unicode="U" horiz-adv-x="779" 
d="M739 700v-354q0 -25 -0.5 -40t-3.5 -45.5t-9 -51t-18 -50t-29 -49.5t-44 -42.5t-60.5 -35.5t-81 -22t-104.5 -9q-56 0 -103.5 9t-81.5 22t-60.5 35.5t-43.5 42.5t-29 49.5t-18 50t-9 51t-3.5 45.5t-0.5 40v354h163v-354q0 -103 26 -137q35 -46 160 -46q38 0 66.5 4
t48.5 10.5t33.5 19.5t21 25t11.5 34t5 40.5t1 49.5v354h163z" />
    <glyph glyph-name="V" unicode="V" horiz-adv-x="946" 
d="M906 698l-339 -698h-194l-333 698h180l251 -525l255 525h180z" />
    <glyph glyph-name="W" unicode="W" horiz-adv-x="1272" 
d="M373 0l-333 698h180l251 -525l73 151l-178 374h180l89 -187l91 187h180l-182 -374l72 -151l255 525h181l-339 -698h-195l-65 136l-66 -136h-194z" />
    <glyph glyph-name="X" unicode="X" horiz-adv-x="869" 
d="M581 698h206l-250 -322l292 -376h-206l-189 244l-189 -244h-205l292 376l-250 322h206l146 -189z" />
    <glyph glyph-name="Y" unicode="Y" horiz-adv-x="888" 
d="M652 698h196l-326 -485v-214h-162v216l-320 483h195l207 -313z" />
    <glyph glyph-name="Z" unicode="Z" horiz-adv-x="756" 
d="M706 162v-162h-656v144l361 392h-314v162h566v-128l-375 -408h418z" />
    <glyph glyph-name="bracketleft" unicode="[" horiz-adv-x="347" 
d="M297 603q-20 0 -34 -14q-29 -31 -41 -103.5t-9 -127.5v-8q-3 -55 9 -127.5t42 -103.5q13 -14 33 -14v-163q-89 0 -151 65q-35 37 -57 91t-29 110.5t-9 87t-1 58.5q-1 28 1 58.5t9 87.5t29 111t57 90q62 65 151 65v-163z" />
    <glyph glyph-name="backslash" unicode="\" horiz-adv-x="738" 
d="M542 -208l-492 1054l147 69l491 -1054z" />
    <glyph glyph-name="bracketright" unicode="]" horiz-adv-x="347" 
d="M201 701q28 -30 48.5 -73t29 -83.5t14 -82t4 -67.5t-0.5 -41q-1 -15 0.5 -41t-4 -67.5t-14 -82t-29 -83.5t-48.5 -73q-62 -65 -151 -65v163q20 0 33 14q30 31 42 103.5t9 127.5v8q3 55 -9 127.5t-42 103.5q-13 14 -33 14v163q89 0 151 -65z" />
    <glyph glyph-name="underscore" unicode="_" horiz-adv-x="556" 
d="M506 -162h-456v162h456v-162z" />
    <glyph glyph-name="a" unicode="a" horiz-adv-x="947" 
d="M907 0h-180l-64 134h-378l-64 -134h-181l339 698v1h195v-1zM586 296l-110 231l-112 -231h222z" />
    <glyph glyph-name="b" unicode="b" horiz-adv-x="867" 
d="M710 372q117 -58 117 -158q0 -98 -76 -155.5t-245 -57.5h-466v699h360q167 0 256.5 -67t89.5 -156q0 -56 -36 -105zM203 427h197q184 0 184 50q0 30 -40 45t-144 15h-197v-110zM422 163q237 0 237 51q0 29 -59 39.5t-179 10.5h-218v-101h219z" />
    <glyph glyph-name="c" unicode="c" horiz-adv-x="856" 
d="M532 163q118 0 212 47l72 -146q-128 -63 -284 -63q-207 0 -349.5 101t-142.5 248t142.5 248.5t349.5 101.5q156 0 284 -63l-72 -146q-92 46 -212 46q-79 0 -154 -23t-125 -67t-50 -97t50 -96.5t125 -67t154 -23.5z" />
    <glyph glyph-name="d" unicode="d" horiz-adv-x="901" 
d="M401 700q109 0 198.5 -31t145.5 -82t86 -114.5t30 -131.5q0 -145 -119 -242q-121 -98 -320 -98h-382v699h361zM639 225q59 48 59 116q0 79 -79.5 137.5t-217.5 58.5h-198v-374h219q141 0 217 62z" />
    <glyph glyph-name="e" unicode="e" horiz-adv-x="673" 
d="M203 537v-106h291v-162h-291v-106h428v-162h-591v699h593v-163h-430z" />
    <glyph glyph-name="f" unicode="f" horiz-adv-x="653" 
d="M203 537v-106h291v-162h-291v-270h-163v701h593v-163h-430z" />
    <glyph glyph-name="g" unicode="g" horiz-adv-x="913" 
d="M873 432v-346l-46 -22q-126 -63 -288 -63q-210 0 -354.5 101t-144.5 248q0 67 30.5 128.5t89 111.5t156.5 80t223 30q159 0 288 -63l-71 -146q-95 46 -217 46q-148 0 -242 -52t-94 -135q0 -74 101 -130.5t235 -56.5q90 0 171 28v78h-218v163h381z" />
    <glyph glyph-name="h" unicode="h" horiz-adv-x="786" 
d="M746 700v-701h-163v270h-380v-270h-163v701h163v-269h380v269h163z" />
    <glyph glyph-name="i" unicode="i" horiz-adv-x="243" 
d="M40 -1v701h163v-701h-163z" />
    <glyph glyph-name="j" unicode="j" horiz-adv-x="619" 
d="M579 700v-345q0 -139 -96 -227q-98 -90 -284 -113q-49 -6 -106 -6q-14 0 -26.5 0.5t-19.5 0.5l-7 1l13 162q71 -6 168.5 9.5t151.5 65.5q43 39 43 107v345h163z" />
    <glyph glyph-name="k" unicode="k" horiz-adv-x="824" 
d="M784 1h-224l-269 282l-88 -80v-204h-163v701h163v-277l303 277h241l-336 -307z" />
    <glyph glyph-name="l" unicode="l" horiz-adv-x="590" 
d="M550 163v-162h-510v699h163v-537h347z" />
    <glyph glyph-name="m" unicode="m" horiz-adv-x="907" 
d="M867 700v-699h-163v393l-255 -306l-246 302v-389h-163v699h120l291 -356l297 356h119z" />
    <glyph glyph-name="n" unicode="n" horiz-adv-x="791" 
d="M751 700v-699h-104l-444 427v-427l-163 -2v701h114l435 -418v418h162z" />
    <glyph glyph-name="o" unicode="o" horiz-adv-x="929" 
d="M465 700q175 0 299.5 -102.5t124.5 -247.5q0 -95 -57 -175.5t-154.5 -127t-212.5 -46.5q-176 0 -300.5 102t-124.5 247t124.5 247.5t300.5 102.5zM465 163q106 0 184 55.5t78 131.5t-77.5 131.5t-184.5 55.5t-184.5 -55.5t-77.5 -131.5t78 -131.5t184 -55.5z" />
    <glyph glyph-name="p" unicode="p" horiz-adv-x="736" 
d="M334 699q175 0 273.5 -79t98.5 -191t-95.5 -191.5t-256.5 -79.5h-161v-159h-163v700h304zM354 321q87 0 138.5 29.5t51.5 78.5q0 50 -55 78.5t-155 28.5h-141v-215h161z" />
    <glyph glyph-name="q" unicode="q" horiz-adv-x="929" 
d="M889 350q0 -87 -48.5 -162t-131.5 -124q45 -2 87 -18l-60 -152q-20 8 -47.5 9t-65.5 -6.5t-63.5 -14.5t-72.5 -20q-163 -44 -230 -44q-51 0 -92 15l54 153q46 -15 175 19q-152 21 -253 118.5t-101 226.5q0 145 124.5 247.5t300.5 102.5q175 0 299.5 -102.5t124.5 -247.5z
M465 163q106 0 184 55.5t78 131.5t-77.5 131.5t-184.5 55.5t-184.5 -55.5t-77.5 -131.5t78 -131.5t184 -55.5z" />
    <glyph glyph-name="r" unicode="r" horiz-adv-x="821" 
d="M729 176q27 -10 41 -32t10.5 -46t-17 -46.5t-43 -37.5t-66.5 -15q-44 0 -97.5 25t-94.5 54.5t-84.5 54.5t-69.5 25h-105v-159h-163v700h304q174 0 273 -79.5t99 -190.5q0 -49 -16.5 -91.5t-42 -70t-48 -44t-41.5 -23.5q16 -28 74.5 -38.5t86.5 14.5zM344 321
q210 0 210 108q0 107 -210 107h-141v-215h141z" />
    <glyph glyph-name="s" unicode="s" horiz-adv-x="822" 
d="M447 434q41 -7 64 -11t63.5 -14t64.5 -20t54.5 -27t47.5 -37.5t29 -50t12 -64.5q0 -92 -97.5 -154.5t-242.5 -62.5q-72 0 -139.5 10.5t-110 23t-82 29.5t-51 24t-19.5 12l92 134q4 -3 13 -7.5t38.5 -16.5t62.5 -21.5t86.5 -17t109.5 -7.5q78 0 127.5 16.5t49.5 39.5
q0 30 -198 61q-41 7 -63 11t-61 13t-62 18.5t-51.5 25.5t-44 35t-26.5 46t-11 60q0 93 97 155t243 62q87 0 161.5 -15t100 -26t39.5 -20l-84 -139l1 -1q-3 3 -23 11t-75 18t-120 10q-75 0 -126 -17t-51 -38q0 -8 12.5 -14.5t36.5 -11.5t43 -8.5t50 -8t40 -5.5z" />
    <glyph glyph-name="t" unicode="t" horiz-adv-x="767" 
d="M727 700v-163h-260v-538h-163v538h-264v163h687z" />
    <glyph glyph-name="u" unicode="u" horiz-adv-x="779" 
d="M739 700v-354q0 -25 -0.5 -40t-3.5 -45.5t-9 -51t-18 -50t-29 -49.5t-44 -42.5t-60.5 -35.5t-81 -22t-104.5 -9q-56 0 -103.5 9t-81.5 22t-60.5 35.5t-43.5 42.5t-29 49.5t-18 50t-9 51t-3.5 45.5t-0.5 40v354h163v-354q0 -103 26 -137q35 -46 160 -46q38 0 66.5 4
t48.5 10.5t33.5 19.5t21 25t11.5 34t5 40.5t1 49.5v354h163z" />
    <glyph glyph-name="v" unicode="v" horiz-adv-x="946" 
d="M906 698l-339 -698h-194l-333 698h180l251 -525l255 525h180z" />
    <glyph glyph-name="w" unicode="w" horiz-adv-x="1272" 
d="M373 0l-333 698h180l251 -525l73 151l-178 374h180l89 -187l91 187h180l-182 -374l72 -151l255 525h181l-339 -698h-195l-65 136l-66 -136h-194z" />
    <glyph glyph-name="x" unicode="x" horiz-adv-x="869" 
d="M581 698h206l-250 -322l292 -376h-206l-189 244l-189 -244h-205l292 376l-250 322h206l146 -189z" />
    <glyph glyph-name="y" unicode="y" horiz-adv-x="888" 
d="M652 698h196l-326 -485v-214h-162v216l-320 483h195l207 -313z" />
    <glyph glyph-name="z" unicode="z" horiz-adv-x="736" 
d="M696 162v-162h-656v144l361 392h-314v162h566v-128l-375 -408h418z" />
    <glyph glyph-name="braceleft" unicode="{" horiz-adv-x="317" 
d="M267 603q-9 0 -13 -3.5t-10.5 -27t-12.5 -72.5q-12 -98 -39 -146q27 -48 39 -146q6 -49 12.5 -72.5t10.5 -27t13 -3.5v-163q-34 0 -62 9.5t-47 23.5t-34.5 37t-23.5 42t-15 47.5t-9.5 44t-5.5 41.5q-11 78 -20 89l3 -2v160q-1 0 -3 -2q9 11 20 89q3 26 5.5 41.5t9.5 44
t15 47.5t23.5 42t34.5 37t47 23.5t62 9.5v-163z" />
    <glyph glyph-name="braceright" unicode="}" horiz-adv-x="317" 
d="M265 434v-160l1 1q-10 -17 -18 -88q-4 -28 -6 -41.5t-9.5 -44t-15.5 -48t-23 -41.5t-34 -37t-47.5 -23t-62.5 -10v163q9 0 13 3.5t10.5 27t12.5 72.5q16 104 39 146q-23 42 -39 146q-6 49 -12.5 72.5t-10.5 27t-13 3.5v163q34 0 62.5 -10t47.5 -23t34 -37t23 -41.5
t15.5 -48t9.5 -44t6 -41.5q8 -71 18 -87h-1zM266 434q1 -1 1 -2l-1 1v1zM267 276q0 -1 -1 -1z" />
    <glyph glyph-name="uni00A0" unicode="&#xa0;" horiz-adv-x="439" 
 />
    <glyph glyph-name="exclamdown" unicode="&#xa1;" 
d="M132 699q33 0 57.5 -26t24.5 -61q0 -37 -21.5 -62t-60.5 -25t-60.5 25t-21.5 62q0 35 24.5 61t57.5 26zM213 451v-456h-162v456h162z" />
    <glyph glyph-name="guillemotleft" unicode="&#xab;" horiz-adv-x="797" 
d="M302 140l-252 253l252 253l115 -115l-139 -138l139 -138zM632 140l-252 253l252 253l115 -115l-139 -138l139 -138z" />
    <glyph glyph-name="periodcentered" unicode="&#xb7;" 
d="M132 342q-33 0 -57.5 26t-24.5 61q0 37 21.5 62t60.5 25t60.5 -25t21.5 -62q0 -35 -24.5 -61t-57.5 -26z" />
    <glyph glyph-name="guillemotright" unicode="&#xbb;" horiz-adv-x="797" 
d="M165 140l-115 115l139 138l-139 138l115 115l252 -253zM495 140l-115 115l139 138l-139 138l115 115l252 -253z" />
    <glyph glyph-name="questiondown" unicode="&#xbf;" horiz-adv-x="764" 
d="M393 700q33 0 57.5 -26t24.5 -61q0 -37 -21.5 -62t-60.5 -25t-60.5 25t-21.5 62q0 35 24.5 61t57.5 26zM394 3q-152 0 -248 64t-96 166q0 38 13.5 69t31 49t46 33t46 21t43.5 13q57 16 69 25.5t12 33.5h163q0 -44 -14 -79t-32.5 -55.5t-48 -38t-49 -24.5t-47.5 -16
q-7 -2 -10 -3q-55 -17 -60 -22l-1 -2v-4q0 -24 54.5 -46t127.5 -22q79 0 127 25q30 16 30 33h163q0 -116 -118 -177q-83 -43 -202 -43z" />
    <glyph glyph-name="endash" unicode="&#x2013;" horiz-adv-x="579" 
d="M529 291h-479v162h479v-162z" />
    <glyph glyph-name="emdash" unicode="&#x2014;" horiz-adv-x="742" 
d="M692 291h-642v162h642v-162z" />
    <glyph glyph-name="quoteleft" unicode="&#x2018;" 
d="M50 612q0 37 21.5 62t60.5 25t60.5 -25t21.5 -62v-3q0 -36 -6.5 -72.5t-21 -74t-42.5 -61.5t-67 -24l-18 32q36 0 51 16t11 39t-16 45.5t-28 38.5l-2 2q-11 11 -19 29l-3 8q-3 12 -3 25z" />
    <glyph glyph-name="quoteright" unicode="&#x2019;" 
d="M214 465q0 -37 -21.5 -62t-60.5 -25t-60.5 25t-21.5 62v2q0 36 6.5 73t21 74.5t43 61.5t66.5 24l18 -32q-35 0 -49.5 -14.5t-8.5 -39t15.5 -44t24.5 -41.5l2 -3q13 -13 19 -29l3 -8q3 -12 3 -24z" />
    <glyph glyph-name="quotesinglbase" unicode="&#x201a;" 
d="M50 87q0 37 21.5 62t60.5 25t60.5 -25t21.5 -62v-3q-1 -37 -7.5 -73t-20.5 -74t-42.5 -61.5t-66.5 -23.5l-18 32q35 0 50 15.5t10.5 38.5t-16 45.5t-26.5 39.5l-2 2q-11 11 -19 29l-2 8q-4 11 -4 25z" />
    <glyph glyph-name="quotedblleft" unicode="&#x201c;" horiz-adv-x="504" 
d="M50 617q0 37 21.5 62t60.5 25t60.5 -25t21.5 -62v-2q0 -36 -6.5 -73t-21 -74.5t-43 -61.5t-66.5 -24l-18 32q35 0 49.5 14.5t8.5 39t-15.5 44t-24.5 41.5l-2 3q-13 13 -19 29l-3 8q-3 12 -3 24zM290 617q0 37 21.5 62t60.5 25t60.5 -25t21.5 -62v-2q0 -36 -6.5 -73
t-21 -74.5t-43 -61.5t-66.5 -24l-18 32q35 0 49.5 14.5t8.5 39t-15.5 44t-24.5 41.5l-2 3q-13 13 -19 29l-3 8q-3 12 -3 24z" />
    <glyph glyph-name="quotedblright" unicode="&#x201d;" horiz-adv-x="504" 
d="M214 465q0 -37 -21.5 -62t-60.5 -25t-60.5 25t-21.5 62v2q0 36 6.5 73t21 74.5t43 61.5t66.5 24l18 -32q-35 0 -49.5 -14.5t-8.5 -39t15.5 -44t24.5 -41.5l2 -3q13 -13 19 -29l3 -8q3 -12 3 -24zM454 465q0 -37 -21.5 -62t-60.5 -25t-60.5 25t-21.5 62v2q0 36 6.5 73
t21 74.5t43 61.5t66.5 24l18 -32q-35 0 -49.5 -14.5t-8.5 -39t15.5 -44t24.5 -41.5l2 -3q13 -13 19 -29l3 -8q3 -12 3 -24z" />
    <glyph glyph-name="quotedblbase" unicode="&#x201e;" 
d="M132 174q39 0 60.5 -25t21.5 -62v-3q-1 -37 -7.5 -73t-20.5 -74t-42.5 -61.5t-66.5 -23.5l-18 32q35 0 50 15.5t10.5 38.5t-16 45.5t-26.5 39.5l-2 2q-11 11 -19 29l-2 8q-4 11 -4 25q0 37 21.5 62t60.5 25z" />
    <glyph glyph-name="bullet" unicode="&#x2022;" horiz-adv-x="381" 
d="M191 267q-57 1 -99 45.5t-42 103.5q0 63 37 105.5t104 43.5t103.5 -42.5t36.5 -106.5q0 -59 -41.5 -104.5t-98.5 -44.5z" />
    <glyph glyph-name="ellipsis" unicode="&#x2026;" 
d="M132 174q39 0 60.5 -25t21.5 -62q0 -35 -24.5 -61t-57.5 -26t-57.5 26t-24.5 61q0 37 21.5 62t60.5 25z" />
    <glyph glyph-name="guilsinglleft" unicode="&#x2039;" horiz-adv-x="467" 
d="M302 140l-252 253l252 253l115 -115l-139 -138l139 -138z" />
    <glyph glyph-name="guilsinglright" unicode="&#x203a;" horiz-adv-x="467" 
d="M165 140l-115 115l139 138l-139 138l115 115l252 -253z" />
    <glyph glyph-name="fraction" unicode="&#x2044;" horiz-adv-x="600" 
 />
    <glyph glyph-name="trademark" unicode="&#x2122;" horiz-adv-x="1674" 
d="M727 700v-163h-260v-538h-163v538h-264v163h687zM1634 700v-699h-163v393l-255 -306l-246 302v-389h-163v699h120l291 -356l297 356h119z" />
    <glyph glyph-name="lozenge" unicode="&#x25ca;" horiz-adv-x="900" 
 />
    </font>
</defs>
</svg>
